# xmcd
#
# Track frame offsets: 
#        150
#        11466
#        25991
#        40232
#        50639
#        69725
#        82192
#        94924
#        105547
#        120565
#        135519
#        145810
#
# Disc length: 2097 seconds
#
# Revision: 0
# Processed by: cddbd v1.5.2PL0 Copyright (c) Steve Scherf et al.
# Submitted via: ExactAudioCopyFreeDBPlugin 1.0
#
DISCID=a3082f0c
DTITLE=River City Band - By The River Alone
DYEAR=2013
DGENRE=Bluegrass
TTITLE0=Come and Sit by Me Little Darlin
TTITLE1=Days Gone By
TTITLE2=Stormy Night, Stormy Day
TTITLE3=Just a Little Bit Better Than Alright
TTITLE4=Jailbird
TTITLE5=By the River
TTITLE6=Old Rocking Chair
TTITLE7=One To Blame
TTITLE8=Five Sad Songs
TTITLE9=No Turnaround
TTITLE10=Puddle Jumping
TTITLE11=Train Town
EXTD=
EXTT0=
EXTT1=
EXTT2=
EXTT3=
EXTT4=
EXTT5=
EXTT6=
EXTT7=
EXTT8=
EXTT9=
EXTT10=
EXTT11=
PLAYORDER=
